<?xml version="1.0" standalone="no"?>
<!DOCTYPE svg PUBLIC "-//W3C//DTD SVG 20010904//EN"
 "http://www.w3.org/TR/2001/REC-SVG-20010904/DTD/svg10.dtd">
<svg version="1.0" xmlns="http://www.w3.org/2000/svg"
 width="100.000000pt" height="100.000000pt" viewBox="0 0 100.000000 100.000000"
 preserveAspectRatio="xMidYMid meet">
<metadata>
Created by potrace 1.10, written by Peter Selinger 2001-2011
</metadata>
<g transform="translate(0.000000,100.000000) scale(0.100000,-0.100000)"
fill="#000000" stroke="none">
<path d="M0 500 l0 -500 500 0 500 0 0 500 0 500 -500 0 -500 0 0 -500z m765
250 l0 -240 -377 0 -378 0 0 240 0 240 378 0 377 0 0 -240z m115 0 l0 -240
-50 0 -50 0 0 240 0 240 50 0 50 0 0 -240z m110 0 l0 -240 -50 0 -50 0 0 240
0 240 50 0 50 0 0 -240z m0 -495 l0 -245 -402 0 -403 0 3 240 3 240 397 3
c218 1 398 3 400 5 1 1 2 -108 2 -243z m-910 11 c0 -123 3 -231 6 -240 5 -13
-2 -16 -35 -16 l-41 0 0 240 0 240 35 0 35 0 0 -224z m90 -16 l0 -240 -35 0
-35 0 0 240 0 240 35 0 35 0 0 -240z"/>
<path d="M550 875 c-11 -13 -11 -18 1 -30 11 -11 17 -11 31 -1 17 12 17 14 -1
30 -16 15 -19 15 -31 1z"/>
<path d="M175 842 c-11 -11 -4 -32 10 -32 11 0 15 -13 15 -52 0 -59 5 -70 37
-87 32 -16 60 -14 83 9 16 16 20 33 20 95 0 68 -2 75 -20 75 -17 0 -19 -8 -22
-72 -3 -70 -4 -73 -28 -73 -24 0 -25 3 -28 71 l-3 71 -29 0 c-17 0 -32 -3 -35
-5z"/>
<path d="M439 809 c-8 -4 -24 -6 -36 -2 -22 5 -23 3 -23 -70 0 -65 2 -75 18
-73 13 1 18 13 22 56 4 47 8 55 25 55 17 0 21 -8 25 -55 4 -43 9 -55 23 -56
14 -2 17 7 17 55 0 32 -6 64 -12 73 -17 21 -42 28 -59 17z"/>
<path d="M540 741 c0 -60 3 -69 19 -74 29 -7 31 -1 31 75 0 66 -1 68 -25 68
-24 0 -25 -2 -25 -69z"/>
<path d="M366 328 c-19 -27 -8 -49 39 -78 47 -29 44 -55 -8 -55 -42 0 -51 -18
-11 -23 95 -12 110 59 22 104 -16 8 -28 21 -28 30 0 23 30 29 60 10 16 -9 38
-16 49 -16 19 0 21 -6 21 -53 0 -29 5 -58 12 -65 15 -15 48 -16 48 -2 0 6 -6
10 -14 10 -16 0 -22 21 -22 70 1 20 6 35 13 35 22 0 27 16 6 21 -13 4 -20 11
-16 20 3 8 -1 14 -10 14 -8 0 -17 -9 -20 -19 -5 -22 -38 -19 -58 5 -18 22 -66
17 -83 -8z"/>
<path d="M600 245 c0 -53 4 -75 13 -75 8 0 11 15 9 48 -4 51 17 88 43 78 8 -3
16 2 19 10 7 18 -34 20 -52 2 -9 -9 -12 -9 -12 0 0 7 -4 12 -10 12 -6 0 -10
-32 -10 -75z"/>
<path d="M717 313 c-15 -15 -5 -23 25 -21 24 2 33 -2 36 -14 2 -13 -3 -18 -20
-18 -38 0 -60 -22 -56 -55 3 -29 5 -30 56 -31 l52 -1 0 58 c0 39 -5 63 -16 73
-15 16 -65 22 -77 9z m61 -95 c-4 -28 -45 -38 -55 -13 -7 19 12 35 40 35 13 0
18 -6 15 -22z"/>
</g>
</svg>
