<?xml version="1.0" encoding="UTF-8"?>
<!DOCTYPE svg PUBLIC "-//W3C//DTD SVG 1.1//EN" "http://www.w3.org/Graphics/SVG/1.1/DTD/svg11.dtd">
<svg xmlns="http://www.w3.org/2000/svg" version="1.1" width="750px" height="324px" style="shape-rendering:geometricPrecision; text-rendering:geometricPrecision; image-rendering:optimizeQuality; fill-rule:evenodd; clip-rule:evenodd" xmlns:xlink="http://www.w3.org/1999/xlink">
<g><path style="opacity:1" fill="#f8f8f8" d="M -0.5,-0.5 C 249.5,-0.5 499.5,-0.5 749.5,-0.5C 749.5,107.5 749.5,215.5 749.5,323.5C 499.5,323.5 249.5,323.5 -0.5,323.5C -0.5,215.5 -0.5,107.5 -0.5,-0.5 Z"/></g>
<g><path style="opacity:1" fill="#fcfcfc" d="M 167.5,58.5 C 239.833,58.5 312.167,58.5 384.5,58.5C 384.5,79.5 384.5,100.5 384.5,121.5C 312.167,121.5 239.833,121.5 167.5,121.5C 167.5,100.5 167.5,79.5 167.5,58.5 Z"/></g>
<g><path style="opacity:1" fill="#fefefe" d="M 387.5,58.5 C 397.5,58.5 407.5,58.5 417.5,58.5C 417.5,79.5 417.5,100.5 417.5,121.5C 407.5,121.5 397.5,121.5 387.5,121.5C 387.5,100.5 387.5,79.5 387.5,58.5 Z"/></g>
<g><path style="opacity:1" fill="#00559b" d="M 166.5,56.5 C 280.833,56.5 395.167,56.5 509.5,56.5C 509.5,57.1667 509.167,57.5 508.5,57.5C 501.167,57.5 493.833,57.5 486.5,57.5C 486.5,78.8333 486.5,100.167 486.5,121.5C 486.5,121.833 486.5,122.167 486.5,122.5C 485.833,122.5 485.5,122.167 485.5,121.5C 485.5,100.167 485.5,78.8333 485.5,57.5C 467.167,57.5 448.833,57.5 430.5,57.5C 430.5,78.8333 430.5,100.167 430.5,121.5C 430.167,122.833 429.833,122.833 429.5,121.5C 429.5,100.5 429.5,79.5 429.5,58.5C 426.375,57.5206 423.042,57.1872 419.5,57.5C 419.5,78.8333 419.5,100.167 419.5,121.5C 419.167,122.833 418.833,122.833 418.5,121.5C 418.5,100.167 418.5,78.8333 418.5,57.5C 408.167,57.5 397.833,57.5 387.5,57.5C 386.833,57.5 386.167,57.5 385.5,57.5C 312.833,57.5 240.167,57.5 167.5,57.5C 166.833,57.5 166.5,57.1667 166.5,56.5 Z"/></g>
<g><path style="opacity:1" fill="#f7fafc" d="M 429.5,58.5 C 429.5,79.5 429.5,100.5 429.5,121.5C 426.5,121.5 423.5,121.5 420.5,121.5C 420.5,100.5 420.5,79.5 420.5,58.5C 423.5,58.5 426.5,58.5 429.5,58.5 Z"/></g>
<g><path style="opacity:1" fill="#fefefe" d="M 508.5,58.5 C 508.5,79.5 508.5,100.5 508.5,121.5C 501.5,121.5 494.5,121.5 487.5,121.5C 487.5,100.5 487.5,79.5 487.5,58.5C 494.5,58.5 501.5,58.5 508.5,58.5 Z"/></g>
<g><path style="opacity:1" fill="#b9d4e5" d="M 387.5,58.5 C 387.5,58.1667 387.5,57.8333 387.5,57.5C 397.833,57.5 408.167,57.5 418.5,57.5C 418.5,78.8333 418.5,100.167 418.5,121.5C 418.167,121.5 417.833,121.5 417.5,121.5C 417.5,100.5 417.5,79.5 417.5,58.5C 407.5,58.5 397.5,58.5 387.5,58.5 Z"/></g>
<g><path style="opacity:1" fill="#69a2c8" d="M 429.5,58.5 C 426.5,58.5 423.5,58.5 420.5,58.5C 420.5,79.5 420.5,100.5 420.5,121.5C 420.167,121.5 419.833,121.5 419.5,121.5C 419.5,100.167 419.5,78.8333 419.5,57.5C 423.042,57.1872 426.375,57.5206 429.5,58.5 Z"/></g>
<g><path style="opacity:1" fill="#2374ae" d="M 509.5,56.5 C 510.497,77.9936 510.831,99.6602 510.5,121.5C 533.5,121.5 556.5,121.5 579.5,121.5C 579.5,121.833 579.5,122.167 579.5,122.5C 578.833,122.5 578.5,122.833 578.5,123.5C 578.167,123.5 577.833,123.5 577.5,123.5C 567.5,123.5 557.5,123.5 547.5,123.5C 547.167,123.5 546.833,123.5 546.5,123.5C 546.167,123.5 545.833,123.5 545.5,123.5C 545.167,123.5 544.833,123.5 544.5,123.5C 525.167,123.5 505.833,123.5 486.5,123.5C 486.5,123.167 486.5,122.833 486.5,122.5C 486.5,122.167 486.5,121.833 486.5,121.5C 486.833,121.5 487.167,121.5 487.5,121.5C 494.5,121.5 501.5,121.5 508.5,121.5C 508.5,100.5 508.5,79.5 508.5,58.5C 508.5,58.1667 508.5,57.8333 508.5,57.5C 509.167,57.5 509.5,57.1667 509.5,56.5 Z"/></g>
<g><path style="opacity:1" fill="#bed7e8" d="M 167.5,58.5 C 167.5,58.1667 167.5,57.8333 167.5,57.5C 240.167,57.5 312.833,57.5 385.5,57.5C 385.5,78.8333 385.5,100.167 385.5,121.5C 385.167,121.5 384.833,121.5 384.5,121.5C 384.5,100.5 384.5,79.5 384.5,58.5C 312.167,58.5 239.833,58.5 167.5,58.5 Z"/></g>
<g><path style="opacity:1" fill="#79accf" d="M 485.5,121.5 C 485.167,121.5 484.833,121.5 484.5,121.5C 484.5,100.5 484.5,79.5 484.5,58.5C 466.833,58.5 449.167,58.5 431.5,58.5C 431.5,79.5 431.5,100.5 431.5,121.5C 431.167,121.5 430.833,121.5 430.5,121.5C 430.5,100.167 430.5,78.8333 430.5,57.5C 448.833,57.5 467.167,57.5 485.5,57.5C 485.5,78.8333 485.5,100.167 485.5,121.5 Z"/></g>
<g><path style="opacity:1" fill="#fefefe" d="M 484.5,121.5 C 466.833,121.5 449.167,121.5 431.5,121.5C 431.5,100.5 431.5,79.5 431.5,58.5C 449.167,58.5 466.833,58.5 484.5,58.5C 484.5,79.5 484.5,100.5 484.5,121.5 Z"/></g>
<g><path style="opacity:1" fill="#b5d0e5" d="M 508.5,57.5 C 508.5,57.8333 508.5,58.1667 508.5,58.5C 501.5,58.5 494.5,58.5 487.5,58.5C 487.5,79.5 487.5,100.5 487.5,121.5C 487.167,121.5 486.833,121.5 486.5,121.5C 486.5,100.167 486.5,78.8333 486.5,57.5C 493.833,57.5 501.167,57.5 508.5,57.5 Z"/></g>
<g><path style="opacity:1" fill="#434343" d="M 238.5,72.5 C 243.041,72.8152 244.041,74.6485 241.5,78C 236.722,78.0734 235.722,76.2401 238.5,72.5 Z"/></g>
<g><path style="opacity:1" fill="#434343" d="M 321.5,72.5 C 326.041,72.8152 327.041,74.6485 324.5,78C 319.722,78.0734 318.722,76.2401 321.5,72.5 Z"/></g>
<g><path style="opacity:1" fill="#434343" d="M 353.5,71.5 C 357.491,73.8097 357.157,75.9764 352.5,78C 349.866,78.9248 348.699,78.0915 349,75.5C 350.992,74.6719 352.492,73.3386 353.5,71.5 Z"/></g>
<g><path style="opacity:1" fill="#3b3b3b" d="M 205.5,77.5 C 207.167,77.5 208.833,77.5 210.5,77.5C 210.5,82.8333 210.5,88.1667 210.5,93.5C 210.128,97.0433 208.128,99.21 204.5,100C 199.269,101.724 195.435,100.224 193,95.5C 192.501,89.5092 192.334,83.5092 192.5,77.5C 194.167,77.5 195.833,77.5 197.5,77.5C 197.334,82.8437 197.501,88.1771 198,93.5C 200.333,96.1667 202.667,96.1667 205,93.5C 205.499,88.1771 205.666,82.8437 205.5,77.5 Z"/></g>
<g><path style="opacity:1" fill="#949494" d="M 205.5,77.5 C 207.265,76.5386 209.265,76.2053 211.5,76.5C 211.822,82.358 211.489,88.0247 210.5,93.5C 210.5,88.1667 210.5,82.8333 210.5,77.5C 208.833,77.5 207.167,77.5 205.5,77.5 Z"/></g>
<g><path style="opacity:1" fill="#9d9d9d" d="M 333.5,77.5 C 334.919,76.5489 336.585,76.2155 338.5,76.5C 338.5,78.1667 338.5,79.8333 338.5,81.5C 337.566,80.4324 337.232,79.099 337.5,77.5C 336.167,77.5 334.833,77.5 333.5,77.5 Z"/></g>
<g><path style="opacity:1" fill="#3e3e3e" d="M 333.5,77.5 C 334.833,77.5 336.167,77.5 337.5,77.5C 337.232,79.099 337.566,80.4324 338.5,81.5C 339.5,81.5 340.5,81.5 341.5,81.5C 341.5,82.8333 341.5,84.1667 341.5,85.5C 340.5,85.5 339.5,85.5 338.5,85.5C 338.5,88.8333 338.5,92.1667 338.5,95.5C 339.5,95.5 340.5,95.5 341.5,95.5C 341.5,97.1667 341.5,98.8333 341.5,100.5C 338.348,101.041 335.848,100.041 334,97.5C 332.646,93.6372 332.146,89.6372 332.5,85.5C 331.5,85.5 330.5,85.5 329.5,85.5C 329.5,84.1667 329.5,82.8333 329.5,81.5C 332.5,81.8333 333.833,80.5 333.5,77.5 Z"/></g>
<g><path style="opacity:1" fill="#6d6d6d" d="M 254.5,91.5 C 252.928,88.7846 251.928,85.7846 251.5,82.5C 249.517,82.1568 248.183,82.8235 247.5,84.5C 246.596,83.791 246.263,82.791 246.5,81.5C 248.5,81.5 250.5,81.5 252.5,81.5C 253.374,84.7893 254.041,88.1226 254.5,91.5 Z"/></g>
<g><path style="opacity:1" fill="#3f3f3f" d="M 271.5,81.5 C 280.505,79.8467 284.839,83.5134 284.5,92.5C 280.445,92.1758 276.445,92.5091 272.5,93.5C 272.977,94.4776 273.643,95.3109 274.5,96C 277.192,96.4298 279.859,96.2631 282.5,95.5C 282.773,97.451 282.107,98.951 280.5,100C 269.386,101.539 265.219,96.706 268,85.5C 268.69,83.6498 269.856,82.3164 271.5,81.5 Z"/></g>
<g><path style="opacity:1" fill="#3b3b3b" d="M 288.5,81.5 C 290.492,81.3285 292.158,81.9951 293.5,83.5C 295.51,81.8287 297.843,81.162 300.5,81.5C 300.5,83.1667 300.5,84.8333 300.5,86.5C 297.956,86.1043 295.789,86.771 294,88.5C 293.501,92.1516 293.335,95.8183 293.5,99.5C 291.833,99.5 290.167,99.5 288.5,99.5C 288.5,93.5 288.5,87.5 288.5,81.5 Z"/></g>
<g><path style="opacity:1" fill="#969696" d="M 325.5,81.5 C 326.49,87.6446 326.823,93.9779 326.5,100.5C 324.265,100.795 322.265,100.461 320.5,99.5C 322.167,99.5 323.833,99.5 325.5,99.5C 325.5,93.5 325.5,87.5 325.5,81.5 Z"/></g>
<g><path style="opacity:1" fill="#616161" d="M 219.5,82.5 C 218.5,82.5 217.5,82.5 216.5,82.5C 216.5,88.1667 216.5,93.8333 216.5,99.5C 216.167,99.5 215.833,99.5 215.5,99.5C 215.5,93.5 215.5,87.5 215.5,81.5C 217.099,81.2322 218.432,81.5655 219.5,82.5 Z"/></g>
<g><path style="opacity:1" fill="#383838" d="M 221.5,87.5 C 220.517,91.2984 220.183,95.2984 220.5,99.5C 219.167,99.5 217.833,99.5 216.5,99.5C 216.5,93.8333 216.5,88.1667 216.5,82.5C 217.5,82.5 218.5,82.5 219.5,82.5C 224.206,80.5274 228.372,81.1941 232,84.5C 232.499,89.4889 232.666,94.4889 232.5,99.5C 230.833,99.5 229.167,99.5 227.5,99.5C 227.5,95.1667 227.5,90.8333 227.5,86.5C 225.265,86.2053 223.265,86.5386 221.5,87.5 Z"/></g>
<g><path style="opacity:1" fill="#535353" d="M 242.5,81.5 C 242.5,81.8333 242.5,82.1667 242.5,82.5C 241.167,82.5 239.833,82.5 238.5,82.5C 238.5,88.1667 238.5,93.8333 238.5,99.5C 238.167,99.5 237.833,99.5 237.5,99.5C 237.5,93.5 237.5,87.5 237.5,81.5C 239.167,81.5 240.833,81.5 242.5,81.5 Z"/></g>
<g><path style="opacity:1" fill="#313131" d="M 242.5,82.5 C 242.5,88.1667 242.5,93.8333 242.5,99.5C 241.167,99.5 239.833,99.5 238.5,99.5C 238.5,93.8333 238.5,88.1667 238.5,82.5C 239.833,82.5 241.167,82.5 242.5,82.5 Z"/></g>
<g><path style="opacity:1" fill="#9e9e9e" d="M 242.5,81.5 C 243.49,87.6446 243.823,93.9779 243.5,100.5C 241.265,100.795 239.265,100.461 237.5,99.5C 237.833,99.5 238.167,99.5 238.5,99.5C 239.833,99.5 241.167,99.5 242.5,99.5C 242.5,93.8333 242.5,88.1667 242.5,82.5C 242.5,82.1667 242.5,81.8333 242.5,81.5 Z"/></g>
<g><path style="opacity:1" fill="#3c3c3c" d="M 259.5,99.5 C 256.721,99.7214 254.054,99.388 251.5,98.5C 250.155,93.8181 248.822,89.1514 247.5,84.5C 248.183,82.8235 249.517,82.1568 251.5,82.5C 251.928,85.7846 252.928,88.7846 254.5,91.5C 254.783,92.2891 255.283,92.9558 256,93.5C 257.269,89.8586 258.436,86.1919 259.5,82.5C 261.5,81.1667 263.5,81.1667 265.5,82.5C 263.496,88.1791 261.496,93.8458 259.5,99.5 Z"/></g>
<g><path style="opacity:1" fill="#383838" d="M 325.5,81.5 C 325.5,87.5 325.5,93.5 325.5,99.5C 323.833,99.5 322.167,99.5 320.5,99.5C 320.5,93.5 320.5,87.5 320.5,81.5C 322.167,81.5 323.833,81.5 325.5,81.5 Z"/></g>
<g><path style="opacity:1" fill="#3e3e3e" d="M 360.5,85.5 C 360.5,87.8333 360.5,90.1667 360.5,92.5C 356.833,92.5 353.167,92.5 349.5,92.5C 349.263,93.791 349.596,94.791 350.5,95.5C 353.444,96.5884 356.444,96.5884 359.5,95.5C 359.773,97.451 359.107,98.951 357.5,100C 354.5,100.667 351.5,100.667 348.5,100C 346.951,98.786 345.785,97.286 345,95.5C 341.821,84.6901 345.655,80.1901 356.5,82C 358.324,82.66 359.657,83.8267 360.5,85.5 Z"/></g>
<g><path style="opacity:1" fill="#f0f0f0" d="M 278.5,86.5 C 278.209,87.6491 277.376,88.3158 276,88.5C 274.624,88.3158 273.791,87.6491 273.5,86.5C 275.167,85.1667 276.833,85.1667 278.5,86.5 Z"/></g>
<g><path style="opacity:1" fill="#e6e6e6" d="M 350.5,85.5 C 352.167,85.5 353.833,85.5 355.5,85.5C 355.5,86.5 355.5,87.5 355.5,88.5C 353.396,88.7989 351.396,88.4656 349.5,87.5C 349.863,86.8165 350.196,86.1499 350.5,85.5 Z"/></g>
<g><path style="opacity:1" fill="#797979" d="M 273.5,86.5 C 273.791,87.6491 274.624,88.3158 276,88.5C 277.376,88.3158 278.209,87.6491 278.5,86.5C 279.404,87.209 279.737,88.209 279.5,89.5C 277.167,89.5 274.833,89.5 272.5,89.5C 272.263,88.209 272.596,87.209 273.5,86.5 Z"/></g>
<g><path style="opacity:1" fill="#909090" d="M 221.5,87.5 C 221.5,91.8333 221.5,96.1667 221.5,100.5C 219.265,100.795 217.265,100.461 215.5,99.5C 215.833,99.5 216.167,99.5 216.5,99.5C 217.833,99.5 219.167,99.5 220.5,99.5C 220.183,95.2984 220.517,91.2984 221.5,87.5 Z"/></g>
<g><path style="opacity:1" fill="#424242" d="M 305.5,81.5 C 308.518,81.3354 311.518,81.502 314.5,82C 316.875,83.51 316.709,85.01 314,86.5C 312.234,85.7665 310.401,85.4332 308.5,85.5C 308.281,86.675 308.614,87.675 309.5,88.5C 316.91,90.4448 318.243,94.2782 313.5,100C 309.909,100.789 306.409,100.622 303,99.5C 302.508,98.451 302.674,97.451 303.5,96.5C 306.167,95.8333 308.833,95.1667 311.5,94.5C 308.404,92.8688 305.57,90.8688 303,88.5C 302.333,87.1667 302.333,85.8333 303,84.5C 304.045,83.6266 304.878,82.6266 305.5,81.5 Z"/></g>
<g><path style="opacity:1" fill="#c9c9c9" d="M 360.5,85.5 C 361.473,87.9479 361.806,90.6146 361.5,93.5C 357.351,92.9197 353.684,93.5864 350.5,95.5C 349.596,94.791 349.263,93.791 349.5,92.5C 353.167,92.5 356.833,92.5 360.5,92.5C 360.5,90.1667 360.5,87.8333 360.5,85.5 Z"/></g>
<g><path style="opacity:1" fill="#b9b9b9" d="M 251.5,98.5 C 254.054,99.388 256.721,99.7214 259.5,99.5C 258.378,100.156 257.045,100.489 255.5,100.5C 253.667,100.415 252.334,99.7479 251.5,98.5 Z"/></g>
<g><path style="opacity:1" fill="#2575ae" d="M 166.5,56.5 C 166.5,57.1667 166.833,57.5 167.5,57.5C 167.5,57.8333 167.5,58.1667 167.5,58.5C 167.5,79.5 167.5,100.5 167.5,121.5C 239.833,121.5 312.167,121.5 384.5,121.5C 384.833,121.5 385.167,121.5 385.5,121.5C 348.67,122.498 311.67,122.832 274.5,122.5C 270.298,122.183 266.298,122.517 262.5,123.5C 262.167,123.5 261.833,123.5 261.5,123.5C 251.167,123.5 240.833,123.5 230.5,123.5C 230.5,144.5 230.5,165.5 230.5,186.5C 230.5,186.833 230.5,187.167 230.5,187.5C 229.833,187.5 229.5,187.833 229.5,188.5C 229.167,188.5 228.833,188.5 228.5,188.5C 228.5,166.833 228.5,145.167 228.5,123.5C 207.5,123.5 186.5,123.5 165.5,123.5C 165.169,100.994 165.503,78.6604 166.5,56.5 Z"/></g>
<g><path style="opacity:1" fill="#2071ab" d="M 385.5,57.5 C 386.167,57.5 386.833,57.5 387.5,57.5C 387.5,57.8333 387.5,58.1667 387.5,58.5C 387.5,79.5 387.5,100.5 387.5,121.5C 397.5,121.5 407.5,121.5 417.5,121.5C 417.833,121.5 418.167,121.5 418.5,121.5C 418.833,122.833 419.167,122.833 419.5,121.5C 419.833,121.5 420.167,121.5 420.5,121.5C 423.5,121.5 426.5,121.5 429.5,121.5C 429.833,122.833 430.167,122.833 430.5,121.5C 430.833,121.5 431.167,121.5 431.5,121.5C 449.167,121.5 466.833,121.5 484.5,121.5C 484.833,121.5 485.167,121.5 485.5,121.5C 485.5,122.167 485.833,122.5 486.5,122.5C 486.5,122.833 486.5,123.167 486.5,123.5C 415.833,123.5 345.167,123.5 274.5,123.5C 274.5,123.167 274.5,122.833 274.5,122.5C 311.67,122.832 348.67,122.498 385.5,121.5C 385.5,100.167 385.5,78.8333 385.5,57.5 Z"/></g>
<g><path style="opacity:1" fill="#fefefe" d="M 261.5,123.5 C 261.5,144.5 261.5,165.5 261.5,186.5C 251.167,186.5 240.833,186.5 230.5,186.5C 230.5,165.5 230.5,144.5 230.5,123.5C 240.833,123.5 251.167,123.5 261.5,123.5 Z"/></g>
<g><path style="opacity:1" fill="#bdd6e8" d="M 261.5,123.5 C 261.833,123.5 262.167,123.5 262.5,123.5C 262.5,144.833 262.5,166.167 262.5,187.5C 251.833,187.5 241.167,187.5 230.5,187.5C 230.5,187.167 230.5,186.833 230.5,186.5C 240.833,186.5 251.167,186.5 261.5,186.5C 261.5,165.5 261.5,144.5 261.5,123.5 Z"/></g>
<g><path style="opacity:1" fill="#e8f2f7" d="M 165.5,123.5 C 186.5,123.5 207.5,123.5 228.5,123.5C 228.5,145.167 228.5,166.833 228.5,188.5C 228.5,188.833 228.5,189.167 228.5,189.5C 227.503,168.006 227.169,146.34 227.5,124.5C 206.66,124.831 185.993,124.497 165.5,123.5 Z"/></g>
<g><path style="opacity:1" fill="#00569a" d="M 274.5,122.5 C 274.5,122.833 274.5,123.167 274.5,123.5C 273.503,144.66 273.169,165.993 273.5,187.5C 364.167,187.5 454.833,187.5 545.5,187.5C 545.5,166.167 545.5,144.833 545.5,123.5C 545.833,123.5 546.167,123.5 546.5,123.5C 546.5,144.833 546.5,166.167 546.5,187.5C 557.167,187.5 567.833,187.5 578.5,187.5C 578.5,166.167 578.5,144.833 578.5,123.5C 578.5,122.833 578.833,122.5 579.5,122.5C 579.5,144.5 579.5,166.5 579.5,188.5C 462.833,188.5 346.167,188.5 229.5,188.5C 229.5,187.833 229.833,187.5 230.5,187.5C 241.167,187.5 251.833,187.5 262.5,187.5C 262.5,166.167 262.5,144.833 262.5,123.5C 266.298,122.517 270.298,122.183 274.5,122.5 Z"/></g>
<g><path style="opacity:1" fill="#9fc4dd" d="M 546.5,123.5 C 546.833,123.5 547.167,123.5 547.5,123.5C 547.5,144.5 547.5,165.5 547.5,186.5C 557.5,186.5 567.5,186.5 577.5,186.5C 577.5,165.5 577.5,144.5 577.5,123.5C 577.833,123.5 578.167,123.5 578.5,123.5C 578.5,144.833 578.5,166.167 578.5,187.5C 567.833,187.5 557.167,187.5 546.5,187.5C 546.5,166.167 546.5,144.833 546.5,123.5 Z"/></g>
<g><path style="opacity:1" fill="#adcde1" d="M 274.5,123.5 C 274.5,144.5 274.5,165.5 274.5,186.5C 364.5,186.5 454.5,186.5 544.5,186.5C 544.5,165.5 544.5,144.5 544.5,123.5C 544.833,123.5 545.167,123.5 545.5,123.5C 545.5,144.833 545.5,166.167 545.5,187.5C 454.833,187.5 364.167,187.5 273.5,187.5C 273.169,165.993 273.503,144.66 274.5,123.5 Z"/></g>
<g><path style="opacity:1" fill="#a7c8e0" d="M 264.5,123.5 C 264.5,144.5 264.5,165.5 264.5,186.5C 266.833,186.5 269.167,186.5 271.5,186.5C 271.5,165.5 271.5,144.5 271.5,123.5C 272.497,144.66 272.831,165.993 272.5,187.5C 269.5,187.5 266.5,187.5 263.5,187.5C 263.169,165.993 263.503,144.66 264.5,123.5 Z"/></g>
<g><path style="opacity:1" fill="#fefefe" d="M 547.5,123.5 C 557.5,123.5 567.5,123.5 577.5,123.5C 577.5,144.5 577.5,165.5 577.5,186.5C 567.5,186.5 557.5,186.5 547.5,186.5C 547.5,165.5 547.5,144.5 547.5,123.5 Z"/></g>
<g><path style="opacity:1" fill="#fbfcfc" d="M 274.5,123.5 C 345.167,123.5 415.833,123.5 486.5,123.5C 505.833,123.5 525.167,123.5 544.5,123.5C 544.5,144.5 544.5,165.5 544.5,186.5C 454.5,186.5 364.5,186.5 274.5,186.5C 274.5,165.5 274.5,144.5 274.5,123.5 Z"/></g>
<g><path style="opacity:1" fill="#919191" d="M 513.5,170.5 C 511.156,170.94 509.156,171.94 507.5,173.5C 506.596,172.791 506.263,171.791 506.5,170.5C 508.833,170.5 511.167,170.5 513.5,170.5 Z"/></g>
<g><path style="opacity:1" fill="#4a4a4a" d="M 469.5,147.5 C 470.5,147.5 471.5,147.5 472.5,147.5C 472.334,152.179 472.501,156.845 473,161.5C 475.916,163.013 478.582,162.68 481,160.5C 481.499,156.179 481.666,151.846 481.5,147.5C 482.5,147.5 483.5,147.5 484.5,147.5C 484.829,153.537 484.496,159.537 483.5,165.5C 479.914,165.26 476.248,165.093 472.5,165C 472,164.5 471.5,164 471,163.5C 469.603,158.292 469.103,152.959 469.5,147.5 Z"/></g>
<g><path style="opacity:1" fill="#828282" d="M 420.5,162.5 C 417.833,163.167 415.167,163.833 412.5,164.5C 411.957,164.44 411.624,164.107 411.5,163.5C 414.428,162.516 417.428,162.183 420.5,162.5 Z"/></g>
<g><path style="opacity:1" fill="#919191" d="M 356.5,162.5 C 354.031,163.317 351.365,163.817 348.5,164C 349.056,164.383 349.389,164.883 349.5,165.5C 347.952,165.179 347.285,164.179 347.5,162.5C 350.5,162.5 353.5,162.5 356.5,162.5 Z"/></g>
<g><path style="opacity:1" fill="#464646" d="M 334.5,151.5 C 334.5,153.167 334.5,154.833 334.5,156.5C 330.629,156.185 326.962,156.518 323.5,157.5C 323.726,163.272 326.56,164.939 332,162.5C 333.826,163.01 333.993,163.844 332.5,165C 328.091,166.262 324.257,165.428 321,162.5C 320.333,158.167 320.333,153.833 321,149.5C 323.559,146.651 326.726,145.817 330.5,147C 332.635,147.876 333.969,149.376 334.5,151.5 Z"/></g>
<g><path style="opacity:1" fill="#3d3d3d" d="M 313.5,139.5 C 313.666,147.84 313.5,156.173 313,164.5C 312.023,163.226 311.189,163.226 310.5,164.5C 302.7,167.211 299.033,164.377 299.5,156C 299.3,153.134 299.967,150.634 301.5,148.5C 304.096,147.735 306.763,147.401 309.5,147.5C 307.797,149.141 305.63,150.141 303,150.5C 302.333,154.167 302.333,157.833 303,161.5C 305.966,164.265 308.633,163.932 311,160.5C 310.865,153.095 311.698,146.095 313.5,139.5 Z"/></g>
<g><path style="opacity:1" fill="#a1a1a1" d="M 508.5,162.5 C 510.5,162.5 512.5,162.5 514.5,162.5C 514.737,163.791 514.404,164.791 513.5,165.5C 512.198,163.972 510.531,162.972 508.5,162.5 Z"/></g>
<g><path style="opacity:1" fill="#454545" d="M 459.5,147.5 C 463.807,148.664 465.474,151.498 464.5,156C 463.805,165.362 459.305,167.862 451,163.5C 449.455,158.953 449.121,154.287 450,149.5C 450.383,148.944 450.883,148.611 451.5,148.5C 454.096,147.735 456.763,147.401 459.5,147.5 Z"/></g>
<g><path style="opacity:1" fill="#848484" d="M 334.5,151.5 C 335.461,153.265 335.795,155.265 335.5,157.5C 331.5,157.5 327.5,157.5 323.5,157.5C 326.962,156.518 330.629,156.185 334.5,156.5C 334.5,154.833 334.5,153.167 334.5,151.5 Z"/></g>
<g><path style="opacity:1" fill="#3b3b3b" d="M 382.5,164.5 C 380.55,159.265 379.883,153.598 380.5,147.5C 381.583,147.539 382.583,147.873 383.5,148.5C 385.51,146.829 387.843,146.162 390.5,146.5C 390.5,147.5 390.5,148.5 390.5,149.5C 387.635,149.055 385.135,149.722 383,151.5C 382.501,155.821 382.334,160.154 382.5,164.5 Z"/></g>
<g><path style="opacity:1" fill="#3e3e3e" d="M 494.5,151.5 C 493.834,155.684 493.167,160.018 492.5,164.5C 491.505,158.872 491.171,153.206 491.5,147.5C 492.583,147.539 493.583,147.873 494.5,148.5C 496.51,146.829 498.843,146.162 501.5,146.5C 501.5,147.5 501.5,148.5 501.5,149.5C 499.473,149.338 497.473,149.505 495.5,150C 494.944,150.383 494.611,150.883 494.5,151.5 Z"/></g>
<g><path style="opacity:1" fill="#4a4a4a" d="M 412.5,164.5 C 415.167,163.833 417.833,163.167 420.5,162.5C 421.573,161.749 421.74,160.749 421,159.5C 417.656,157.996 414.656,155.996 412,153.5C 411.08,150.692 411.913,148.525 414.5,147C 417.429,146.223 420.263,146.39 423,147.5C 412.163,149.125 411.996,152.291 422.5,157C 425.265,159.966 424.932,162.633 421.5,165C 418.304,165.805 415.304,165.638 412.5,164.5 Z"/></g>
<g><path style="opacity:1" fill="#9c9c9c" d="M 403.5,151.5 C 404.404,152.209 404.737,153.209 404.5,154.5C 402.5,154.5 400.5,154.5 398.5,154.5C 400.531,154.028 402.198,153.028 403.5,151.5 Z"/></g>
<g><path style="opacity:1" fill="#868686" d="M 491.5,147.5 C 491.171,153.206 491.505,158.872 492.5,164.5C 493.167,160.018 493.834,155.684 494.5,151.5C 494.5,156.167 494.5,160.833 494.5,165.5C 493.167,165.5 491.833,165.5 490.5,165.5C 490.177,159.31 490.51,153.31 491.5,147.5 Z"/></g>
<g><path style="opacity:1" fill="#454545" d="M 398.5,154.5 C 400.5,154.5 402.5,154.5 404.5,154.5C 404.737,153.209 404.404,152.209 403.5,151.5C 403.389,150.883 403.056,150.383 402.5,150C 399.774,149.818 397.107,149.318 394.5,148.5C 398.451,145.748 402.284,146.081 406,149.5C 406.829,154.864 406.663,160.198 405.5,165.5C 404.833,164.833 404.167,164.167 403.5,163.5C 400.532,165.662 397.366,165.995 394,164.5C 391.046,159.028 392.546,155.695 398.5,154.5 Z"/></g>
<g><path style="opacity:1" fill="#eeeeee" d="M 397.5,156.5 C 399.5,156.5 401.5,156.5 403.5,156.5C 404.32,160.198 402.987,162.531 399.5,163.5C 395.167,162.172 394.501,159.838 397.5,156.5 Z"/></g>
<g><path style="opacity:1" fill="#999999" d="M 374.5,149.5 C 373.791,150.404 372.791,150.737 371.5,150.5C 371.5,154.167 371.5,157.833 371.5,161.5C 370.517,157.702 370.183,153.702 370.5,149.5C 371.833,149.5 373.167,149.5 374.5,149.5 Z"/></g>
<g><path style="opacity:1" fill="#393939" d="M 507.5,160.5 C 507.833,161.167 508.167,161.833 508.5,162.5C 510.531,162.972 512.198,163.972 513.5,165.5C 511.473,165.662 509.473,165.495 507.5,165C 506.572,164.612 505.905,163.945 505.5,163C 504.606,159.224 504.272,155.39 504.5,151.5C 505.117,151.389 505.617,151.056 506,150.5C 506.179,154.025 506.679,157.359 507.5,160.5 Z"/></g>
<g><path style="opacity:1" fill="#f0f0f0" d="M 453.5,149.5 C 456.365,149.055 458.865,149.722 461,151.5C 461.667,154.5 461.667,157.5 461,160.5C 458.679,163.917 456.012,164.25 453,161.5C 452.238,157.413 452.404,153.413 453.5,149.5 Z"/></g>
<g><path style="opacity:1" fill="#f2f2f2" d="M 324.5,149.5 C 326.527,149.338 328.527,149.505 330.5,150C 331.38,151.356 331.714,152.856 331.5,154.5C 328.833,154.5 326.167,154.5 323.5,154.5C 323.366,152.708 323.699,151.042 324.5,149.5 Z"/></g>
<g><path style="opacity:1" fill="#3c3c3c" d="M 429.5,139.5 C 431.151,146.274 432.151,153.274 432.5,160.5C 435.201,164.467 438.034,164.467 441,160.5C 443.611,153.074 441.111,149.074 433.5,148.5C 436.788,145.844 439.955,146.177 443,149.5C 443.667,153.833 443.667,158.167 443,162.5C 442.167,163.333 441.333,164.167 440.5,165C 437.06,165.178 433.727,165.345 430.5,165.5C 429.502,156.859 429.169,148.192 429.5,139.5 Z"/></g>
<g><path style="opacity:1" fill="#424242" d="M 513.5,147.5 C 514.802,148.807 516.135,148.807 517.5,147.5C 518.665,155.145 518.831,162.812 518,170.5C 515.103,173.231 511.603,174.231 507.5,173.5C 509.156,171.94 511.156,170.94 513.5,170.5C 514.117,170.389 514.617,170.056 515,169.5C 515.667,163.5 515.667,157.5 515,151.5C 513.211,149.771 511.044,149.104 508.5,149.5C 507.262,149.19 507.262,148.69 508.5,148C 510.134,147.506 511.801,147.34 513.5,147.5 Z"/></g>
<g><path style="opacity:1" fill="#696969" d="M 513.5,147.5 C 511.801,147.34 510.134,147.506 508.5,148C 507.262,148.69 507.262,149.19 508.5,149.5C 507.577,153.064 507.244,156.731 507.5,160.5C 506.679,157.359 506.179,154.025 506,150.5C 505.617,151.056 505.117,151.389 504.5,151.5C 506.067,146.751 509.067,145.417 513.5,147.5 Z"/></g>
<g><path style="opacity:1" fill="#6c6c6c" d="M 380.5,147.5 C 379.883,153.598 380.55,159.265 382.5,164.5C 381.791,165.404 380.791,165.737 379.5,165.5C 379.177,159.31 379.51,153.31 380.5,147.5 Z"/></g>
<g><path style="opacity:1" fill="#8a8a8a" d="M 459.5,147.5 C 456.763,147.401 454.096,147.735 451.5,148.5C 452.492,146.974 453.992,146.307 456,146.5C 457.385,146.514 458.551,146.848 459.5,147.5 Z"/></g>
<g><path style="opacity:1" fill="#8e8e8e" d="M 309.5,147.5 C 306.763,147.401 304.096,147.735 301.5,148.5C 302.492,146.974 303.992,146.307 306,146.5C 307.385,146.514 308.551,146.848 309.5,147.5 Z"/></g>
<g><path style="opacity:1" fill="#424242" d="M 367.5,146.5 C 369.81,142.214 370.81,142.548 370.5,147.5C 371.833,147.5 373.167,147.5 374.5,147.5C 374.5,148.167 374.5,148.833 374.5,149.5C 373.167,149.5 371.833,149.5 370.5,149.5C 370.183,153.702 370.517,157.702 371.5,161.5C 372.23,162.712 373.23,163.712 374.5,164.5C 371.789,165.989 369.789,165.322 368.5,162.5C 368.5,158.167 368.5,153.833 368.5,149.5C 366.833,149.5 365.167,149.5 363.5,149.5C 361.405,148.588 359.405,147.421 357.5,146C 355.231,145.242 353.064,145.409 351,146.5C 350.333,147.5 350.333,148.5 351,149.5C 353.408,151.956 356.241,153.789 359.5,155C 362.343,158.619 362.01,161.952 358.5,165C 355.518,165.498 352.518,165.665 349.5,165.5C 349.389,164.883 349.056,164.383 348.5,164C 351.365,163.817 354.031,163.317 356.5,162.5C 357.649,162.209 358.316,161.376 358.5,160C 358.333,159.167 358.167,158.333 358,157.5C 354.142,155.905 350.809,153.572 348,150.5C 347.506,143.676 350.672,141.176 357.5,143C 359.5,144.333 361.5,145.667 363.5,147C 365.066,147.765 366.399,147.598 367.5,146.5 Z"/></g>
<g><path style="opacity:1" fill="#aaaaaa" d="M 363.5,149.5 C 365.167,149.5 366.833,149.5 368.5,149.5C 368.5,153.833 368.5,158.167 368.5,162.5C 367.517,158.702 367.183,154.702 367.5,150.5C 365.901,150.768 364.568,150.434 363.5,149.5 Z"/></g>
<g><path style="opacity:1" fill="#9b9b9b" d="M 374.5,147.5 C 373.167,147.5 371.833,147.5 370.5,147.5C 370.81,142.548 369.81,142.214 367.5,146.5C 367.167,143.5 368.5,142.167 371.5,142.5C 371.5,143.833 371.5,145.167 371.5,146.5C 372.791,146.263 373.791,146.596 374.5,147.5 Z"/></g>
<g><path style="opacity:1" fill="#5f5f5f" d="M 313.5,139.5 C 314.493,147.984 314.826,156.651 314.5,165.5C 313.041,165.567 311.708,165.234 310.5,164.5C 311.189,163.226 312.023,163.226 313,164.5C 313.5,156.173 313.666,147.84 313.5,139.5 Z"/></g>
<g><path style="opacity:1" fill="#828282" d="M 429.5,139.5 C 430.209,138.596 431.209,138.263 432.5,138.5C 432.5,145.833 432.5,153.167 432.5,160.5C 432.151,153.274 431.151,146.274 429.5,139.5 Z"/></g>
<g><path style="opacity:1" fill="#fdfefe" d="M 264.5,123.5 C 266.833,123.5 269.167,123.5 271.5,123.5C 271.5,144.5 271.5,165.5 271.5,186.5C 269.167,186.5 266.833,186.5 264.5,186.5C 264.5,165.5 264.5,144.5 264.5,123.5 Z"/></g>
<g><path style="opacity:1" fill="#79acce" d="M 579.5,121.5 C 580.497,143.994 580.831,166.661 580.5,189.5C 463.167,189.5 345.833,189.5 228.5,189.5C 228.5,189.167 228.5,188.833 228.5,188.5C 228.833,188.5 229.167,188.5 229.5,188.5C 346.167,188.5 462.833,188.5 579.5,188.5C 579.5,166.5 579.5,144.5 579.5,122.5C 579.5,122.167 579.5,121.833 579.5,121.5 Z"/></g>
<g><path style="opacity:1" fill="#8cb8d6" d="M 307.5,204.5 C 308.167,239.167 308.833,239.167 309.5,204.5C 310.493,213.318 310.827,222.318 310.5,231.5C 309.167,231.5 307.833,231.5 306.5,231.5C 306.173,222.318 306.507,213.318 307.5,204.5 Z"/></g>
<g><path style="opacity:1" fill="#0261a2" d="M 307.5,204.5 C 308.167,204.5 308.833,204.5 309.5,204.5C 308.833,239.167 308.167,239.167 307.5,204.5 Z"/></g>
<g><path style="opacity:1" fill="#015fa1" d="M 318.5,204.5 C 319.136,213.565 318.47,222.231 316.5,230.5C 315.864,221.435 316.53,212.769 318.5,204.5 Z"/></g>
<g><path style="opacity:1" fill="#89b6d4" d="M 318.5,204.5 C 319.493,213.318 319.827,222.318 319.5,231.5C 318.209,231.737 317.209,231.404 316.5,230.5C 318.47,222.231 319.136,213.565 318.5,204.5 Z"/></g>
<g><path style="opacity:1" fill="#1f71ab" d="M 455.5,205.5 C 458.861,206.203 459.194,207.537 456.5,209.5C 454.358,208.563 454.024,207.23 455.5,205.5 Z"/></g>
<g><path style="opacity:1" fill="#196eaa" d="M 533.5,205.5 C 536.861,206.203 537.194,207.537 534.5,209.5C 532.358,208.563 532.024,207.23 533.5,205.5 Z"/></g>
<g><path style="opacity:1" fill="#0161a2" d="M 413.5,208.5 C 414.108,213.944 413.442,218.944 411.5,223.5C 410.892,218.056 411.558,213.056 413.5,208.5 Z"/></g>
<g><path style="opacity:1" fill="#3f7eb4" d="M 413.5,208.5 C 414.328,214.319 414.828,220.319 415,226.5C 418,229.167 421,229.167 424,226.5C 424.499,220.509 424.666,214.509 424.5,208.5C 425.833,208.5 427.167,208.5 428.5,208.5C 428.666,213.844 428.499,219.177 428,224.5C 425.897,230.469 421.73,232.636 415.5,231C 412.603,229.285 411.269,226.785 411.5,223.5C 413.442,218.944 414.108,213.944 413.5,208.5 Z"/></g>
<g><path style="opacity:1" fill="#649ec7" d="M 546.5,208.5 C 547.434,209.568 547.768,210.901 547.5,212.5C 548.791,212.263 549.791,212.596 550.5,213.5C 549.167,213.5 547.833,213.5 546.5,213.5C 546.5,211.833 546.5,210.167 546.5,208.5 Z"/></g>
<g><path style="opacity:1" fill="#79acd0" d="M 504.5,213.5 C 502.55,218.735 501.883,224.402 502.5,230.5C 501.51,224.69 501.177,218.69 501.5,212.5C 502.791,212.263 503.791,212.596 504.5,213.5 Z"/></g>
<g><path style="opacity:1" fill="#357ab1" d="M 517.5,212.5 C 520.833,212.5 524.167,212.5 527.5,212.5C 527.762,213.978 527.429,215.311 526.5,216.5C 523.916,215.607 521.249,215.274 518.5,215.5C 518.297,217.39 518.963,218.89 520.5,220C 522.746,221.039 524.913,222.206 527,223.5C 528.212,226.834 527.379,229.334 524.5,231C 521.518,231.498 518.518,231.665 515.5,231.5C 515.5,230.5 515.5,229.5 515.5,228.5C 518.5,228.5 521.5,228.5 524.5,228.5C 524.657,227.127 524.49,225.793 524,224.5C 518.224,223.413 515.557,220.08 516,214.5C 516.717,213.956 517.217,213.289 517.5,212.5 Z"/></g>
<g><path style="opacity:1" fill="#2b73ad" d="M 301.5,222.5 C 297.5,222.5 293.5,222.5 289.5,222.5C 289.232,224.099 289.566,225.432 290.5,226.5C 290.833,227.5 291.5,228.167 292.5,228.5C 294.292,229.309 296.292,229.809 298.5,230C 295.854,230.497 293.187,230.664 290.5,230.5C 287.088,228.749 285.755,225.916 286.5,222C 286.503,212.595 290.836,209.928 299.5,214C 301.314,216.481 301.98,219.315 301.5,222.5 Z"/></g>
<g><path style="opacity:1" fill="#dfeaf3" d="M 290.5,215.5 C 292.857,215.337 295.19,215.503 297.5,216C 298.38,217.356 298.714,218.856 298.5,220.5C 295.5,220.5 292.5,220.5 289.5,220.5C 289.366,218.708 289.699,217.042 290.5,215.5 Z"/></g>
<g><path style="opacity:1" fill="#2d73ad" d="M 339.5,222.5 C 335.5,222.5 331.5,222.5 327.5,222.5C 327.232,224.099 327.566,225.432 328.5,226.5C 329.312,227.993 330.645,228.66 332.5,228.5C 334.512,228.16 336.512,227.827 338.5,227.5C 338.67,228.822 338.337,229.989 337.5,231C 326.386,232.539 322.219,227.706 325,216.5C 329.255,211.563 333.922,211.229 339,215.5C 339.497,217.81 339.663,220.143 339.5,222.5 Z"/></g>
<g><path style="opacity:1" fill="#f2f7fa" d="M 336.5,219.5 C 333.833,219.5 331.167,219.5 328.5,219.5C 328.5,218.5 328.5,217.5 328.5,216.5C 330.628,215.371 332.961,215.204 335.5,216C 336.337,217.011 336.67,218.178 336.5,219.5 Z"/></g>
<g><path style="opacity:1" fill="#75a8cc" d="M 457.5,230.5 C 456.791,231.404 455.791,231.737 454.5,231.5C 454.5,225.167 454.5,218.833 454.5,212.5C 455.833,212.5 457.167,212.5 458.5,212.5C 458.823,218.69 458.49,224.69 457.5,230.5 Z"/></g>
<g><path style="opacity:1" fill="#0964a3" d="M 457.5,230.5 C 456.186,228.085 455.519,225.252 455.5,222C 455.833,219.167 456.167,216.333 456.5,213.5C 457.495,219.128 457.829,224.794 457.5,230.5 Z"/></g>
<g><path style="opacity:1" fill="#518bbb" d="M 485.5,213.5 C 487.5,214.167 489.5,214.833 491.5,215.5C 489.265,215.205 487.265,215.539 485.5,216.5C 484.833,216.5 484.5,216.833 484.5,217.5C 483.883,217.389 483.383,217.056 483,216.5C 482.502,219.817 482.335,223.15 482.5,226.5C 481.357,223.024 481.19,219.358 482,215.5C 482.816,214.177 483.983,213.511 485.5,213.5 Z"/></g>
<g><path style="opacity:1" fill="#f2f7fa" d="M 491.5,215.5 C 493.104,216.287 493.771,217.62 493.5,219.5C 490.833,219.5 488.167,219.5 485.5,219.5C 485.5,218.5 485.5,217.5 485.5,216.5C 487.265,215.539 489.265,215.205 491.5,215.5 Z"/></g>
<g><path style="opacity:1" fill="#7fb1d1" d="M 533.5,230.5 C 532.51,224.69 532.177,218.69 532.5,212.5C 533.833,212.5 535.167,212.5 536.5,212.5C 536.5,218.833 536.5,225.167 536.5,231.5C 535.209,231.737 534.209,231.404 533.5,230.5 Z"/></g>
<g><path style="opacity:1" fill="#015fa1" d="M 533.5,230.5 C 533.171,224.794 533.505,219.128 534.5,213.5C 534.833,216.333 535.167,219.167 535.5,222C 535.481,225.252 534.814,228.085 533.5,230.5 Z"/></g>
<g><path style="opacity:1" fill="#3879b0" d="M 461.5,212.5 C 462.822,212.33 463.989,212.663 465,213.5C 466.667,217.5 468.333,221.5 470,225.5C 472.628,221.963 474.294,217.963 475,213.5C 476.183,212.269 477.349,212.269 478.5,213.5C 476.181,219.463 474.181,225.463 472.5,231.5C 470.833,231.5 469.167,231.5 467.5,231.5C 465.924,225.103 463.924,218.77 461.5,212.5 Z"/></g>
<g><path style="opacity:1" fill="#b0cfe4" d="M 233.5,208.5 C 237.97,207.514 242.637,207.181 247.5,207.5C 247.5,208.833 247.5,210.167 247.5,211.5C 244.167,211.5 240.833,211.5 237.5,211.5C 237.5,213.5 237.5,215.5 237.5,217.5C 240.385,217.194 243.052,217.527 245.5,218.5C 242.5,218.5 239.5,218.5 236.5,218.5C 236.5,215.833 236.5,213.167 236.5,210.5C 239.898,210.82 243.232,210.487 246.5,209.5C 242.555,208.509 238.555,208.176 234.5,208.5C 234.167,208.5 233.833,208.5 233.5,208.5 Z"/></g>
<g><path style="opacity:1" fill="#3374ad" d="M 502.5,230.5 C 501.883,224.402 502.55,218.735 504.5,213.5C 507.502,212.357 510.502,212.357 513.5,213.5C 513.291,214.086 512.957,214.586 512.5,215C 510.236,215.236 508.069,215.736 506,216.5C 505.501,221.155 505.334,225.821 505.5,230.5C 504.5,230.5 503.5,230.5 502.5,230.5 Z"/></g>
<g><path style="opacity:1" fill="#7aacce" d="M 540.5,212.5 C 541.183,214.176 542.517,214.843 544.5,214.5C 544.5,218.833 544.5,223.167 544.5,227.5C 543.517,223.702 543.183,219.702 543.5,215.5C 542.167,215.5 540.833,215.5 539.5,215.5C 539.263,214.209 539.596,213.209 540.5,212.5 Z"/></g>
<g><path style="opacity:1" fill="#1a69a7" d="M 546.5,208.5 C 546.5,210.167 546.5,211.833 546.5,213.5C 547.833,213.5 549.167,213.5 550.5,213.5C 549.817,215.176 548.483,215.843 546.5,215.5C 546.334,219.514 546.501,223.514 547,227.5C 548.011,228.337 549.178,228.67 550.5,228.5C 550.5,229.5 550.5,230.5 550.5,231.5C 547.122,232.109 545.122,230.776 544.5,227.5C 544.5,223.167 544.5,218.833 544.5,214.5C 542.517,214.843 541.183,214.176 540.5,212.5C 541.552,212.649 542.552,212.483 543.5,212C 543.974,210.271 544.974,209.105 546.5,208.5 Z"/></g>
<g><path style="opacity:1" fill="#0965a4" d="M 234.5,208.5 C 238.555,208.176 242.555,208.509 246.5,209.5C 243.232,210.487 239.898,210.82 236.5,210.5C 236.5,213.167 236.5,215.833 236.5,218.5C 239.5,218.5 242.5,218.5 245.5,218.5C 243.012,220.388 240.012,221.055 236.5,220.5C 236.5,223.167 236.5,225.833 236.5,228.5C 240.167,228.5 243.833,228.5 247.5,228.5C 247.5,229.167 247.5,229.833 247.5,230.5C 243.167,230.5 238.833,230.5 234.5,230.5C 234.5,223.167 234.5,215.833 234.5,208.5 Z"/></g>
<g><path style="opacity:1" fill="#1769a6" d="M 448.5,217.5 C 448.826,221.884 448.492,226.217 447.5,230.5C 446.833,225.683 446.166,221.017 445.5,216.5C 442.466,214.898 439.799,215.231 437.5,217.5C 436.834,221.684 436.167,226.018 435.5,230.5C 435.167,227.667 434.833,224.833 434.5,222C 434.519,218.748 435.186,215.915 436.5,213.5C 437.078,214.547 437.744,214.38 438.5,213C 443.457,211.317 446.79,212.817 448.5,217.5 Z"/></g>
<g><path style="opacity:1" fill="#3779b1" d="M 273.5,212.5 C 276.187,212.336 278.854,212.503 281.5,213C 281.957,213.414 282.291,213.914 282.5,214.5C 279.893,215.318 277.226,215.818 274.5,216C 273.374,219.744 273.207,223.577 274,227.5C 276.8,228.125 279.634,228.792 282.5,229.5C 282.291,230.086 281.957,230.586 281.5,231C 276.269,232.724 272.435,231.224 270,226.5C 268.496,221.01 269.663,216.343 273.5,212.5 Z"/></g>
<g><path style="opacity:1" fill="#99bfdb" d="M 328.5,216.5 C 328.5,217.5 328.5,218.5 328.5,219.5C 331.167,219.5 333.833,219.5 336.5,219.5C 333.713,220.477 330.713,220.81 327.5,220.5C 327.232,218.901 327.566,217.568 328.5,216.5 Z"/></g>
<g><path style="opacity:1" fill="#1666a5" d="M 359.5,216.5 C 359.827,221.214 359.493,225.88 358.5,230.5C 357.833,226.018 357.166,221.684 356.5,217.5C 355.688,216.007 354.355,215.34 352.5,215.5C 350.645,215.34 349.312,216.007 348.5,217.5C 348.135,222.094 347.135,226.427 345.5,230.5C 344.883,224.402 345.55,218.735 347.5,213.5C 352.446,211.383 356.446,212.383 359.5,216.5 Z"/></g>
<g><path style="opacity:1" fill="#90bad7" d="M 359.5,216.5 C 360.487,221.305 360.821,226.305 360.5,231.5C 359.167,231.5 357.833,231.5 356.5,231.5C 356.5,226.833 356.5,222.167 356.5,217.5C 357.166,221.684 357.833,226.018 358.5,230.5C 359.493,225.88 359.827,221.214 359.5,216.5 Z"/></g>
<g><path style="opacity:1" fill="#8ab4d4" d="M 445.5,216.5 C 446.166,221.017 446.833,225.683 447.5,230.5C 448.492,226.217 448.826,221.884 448.5,217.5C 449.486,221.97 449.819,226.637 449.5,231.5C 448.167,231.5 446.833,231.5 445.5,231.5C 445.5,226.5 445.5,221.5 445.5,216.5 Z"/></g>
<g><path style="opacity:1" fill="#5d9bc3" d="M 233.5,208.5 C 233.833,208.5 234.167,208.5 234.5,208.5C 234.5,215.833 234.5,223.167 234.5,230.5C 238.833,230.5 243.167,230.5 247.5,230.5C 243.03,231.486 238.363,231.819 233.5,231.5C 233.5,223.833 233.5,216.167 233.5,208.5 Z"/></g>
<g><path style="opacity:1" fill="#81b0d2" d="M 436.5,213.5 C 435.186,215.915 434.519,218.748 434.5,222C 434.833,224.833 435.167,227.667 435.5,230.5C 436.167,226.018 436.834,221.684 437.5,217.5C 437.5,222.167 437.5,226.833 437.5,231.5C 436.167,231.5 434.833,231.5 433.5,231.5C 433.5,225.167 433.5,218.833 433.5,212.5C 434.791,212.263 435.791,212.596 436.5,213.5 Z"/></g>
<g><path style="opacity:1" fill="#7caece" d="M 348.5,217.5 C 348.5,222.167 348.5,226.833 348.5,231.5C 347.209,231.737 346.209,231.404 345.5,230.5C 347.135,226.427 348.135,222.094 348.5,217.5 Z"/></g>
<g><path style="opacity:1" fill="#3276af" d="M 385.5,212.5 C 393.513,211.187 397.513,214.521 397.5,222.5C 393.5,222.5 389.5,222.5 385.5,222.5C 385.261,224.467 385.594,226.301 386.5,228C 389.553,228.179 392.553,228.679 395.5,229.5C 391.033,232.42 386.867,232.086 383,228.5C 380.362,222.482 381.195,217.149 385.5,212.5 Z"/></g>
<g><path style="opacity:1" fill="#eaf1f7" d="M 386.5,215.5 C 388.527,215.338 390.527,215.505 392.5,216C 393.38,217.356 393.714,218.856 393.5,220.5C 390.833,220.5 388.167,220.5 385.5,220.5C 385.366,218.708 385.699,217.042 386.5,215.5 Z"/></g>
<g><path style="opacity:1" fill="#1468a6" d="M 496.5,222.5 C 492.5,222.5 488.5,222.5 484.5,222.5C 484.232,224.099 484.566,225.432 485.5,226.5C 485.833,227.5 486.5,228.167 487.5,228.5C 489.292,229.309 491.292,229.809 493.5,230C 490.854,230.497 488.187,230.664 485.5,230.5C 483.738,229.738 482.738,228.404 482.5,226.5C 482.335,223.15 482.502,219.817 483,216.5C 483.383,217.056 483.883,217.389 484.5,217.5C 484.5,218.5 484.5,219.5 484.5,220.5C 487.713,220.81 490.713,220.477 493.5,219.5C 493.771,217.62 493.104,216.287 491.5,215.5C 489.5,214.833 487.5,214.167 485.5,213.5C 493.493,211.011 497.16,214.011 496.5,222.5 Z"/></g>
<g><path style="opacity:1" fill="#9bc1db" d="M 485.5,216.5 C 485.5,217.5 485.5,218.5 485.5,219.5C 488.167,219.5 490.833,219.5 493.5,219.5C 490.713,220.477 487.713,220.81 484.5,220.5C 484.5,219.5 484.5,218.5 484.5,217.5C 484.5,216.833 484.833,216.5 485.5,216.5 Z"/></g>
<g><path style="opacity:1" fill="#2771ab" d="M 254.5,230.5 C 253.209,230.737 252.209,230.404 251.5,229.5C 253.14,226.851 254.807,224.184 256.5,221.5C 254.833,218.833 253.167,216.167 251.5,213.5C 252.365,212.417 253.365,212.251 254.5,213C 255.64,214.973 256.973,216.807 258.5,218.5C 260.194,216.139 262.194,214.139 264.5,212.5C 265.167,212.833 265.833,213.167 266.5,213.5C 264.115,215.884 262.115,218.55 260.5,221.5C 262.748,224.328 264.748,227.328 266.5,230.5C 265.635,231.583 264.635,231.749 263.5,231C 261.994,228.667 260.327,226.5 258.5,224.5C 256.674,226.147 255.34,228.147 254.5,230.5 Z"/></g>
<g><path style="opacity:1" fill="#aecde2" d="M 301.5,222.5 C 298.038,223.482 294.371,223.815 290.5,223.5C 290.5,224.5 290.5,225.5 290.5,226.5C 289.566,225.432 289.232,224.099 289.5,222.5C 293.5,222.5 297.5,222.5 301.5,222.5 Z"/></g>
<g><path style="opacity:1" fill="#a7c8df" d="M 339.5,222.5 C 336.038,223.482 332.371,223.815 328.5,223.5C 328.5,224.5 328.5,225.5 328.5,226.5C 327.566,225.432 327.232,224.099 327.5,222.5C 331.5,222.5 335.5,222.5 339.5,222.5 Z"/></g>
<g><path style="opacity:1" fill="#86b4d4" d="M 347.5,213.5 C 345.55,218.735 344.883,224.402 345.5,230.5C 344.51,224.69 344.177,218.69 344.5,212.5C 345.791,212.263 346.791,212.596 347.5,213.5 Z"/></g>
<g><path style="opacity:1" fill="#aacbe0" d="M 496.5,222.5 C 493.038,223.482 489.371,223.815 485.5,223.5C 485.5,224.5 485.5,225.5 485.5,226.5C 484.566,225.432 484.232,224.099 484.5,222.5C 488.5,222.5 492.5,222.5 496.5,222.5 Z"/></g>
<g><path style="opacity:1" fill="#bbd5e7" d="M 245.5,218.5 C 246.267,219.172 246.934,220.005 247.5,221C 244.183,221.498 240.85,221.665 237.5,221.5C 237.5,223.5 237.5,225.5 237.5,227.5C 241.042,227.187 244.375,227.521 247.5,228.5C 243.833,228.5 240.167,228.5 236.5,228.5C 236.5,225.833 236.5,223.167 236.5,220.5C 240.012,221.055 243.012,220.388 245.5,218.5 Z"/></g>
<g><path style="opacity:1" fill="#2c73ad" d="M 368.5,212.5 C 371.5,212.5 374.5,212.5 377.5,212.5C 377.5,213.5 377.5,214.5 377.5,215.5C 374.813,215.336 372.146,215.503 369.5,216C 368.194,219.802 368.194,223.635 369.5,227.5C 372.5,228.167 375.5,228.833 378.5,229.5C 369.643,234.185 365.31,231.518 365.5,221.5C 365.028,217.904 366.028,214.904 368.5,212.5 Z"/></g>
<g><path style="opacity:1" fill="#2d74ad" d="M 553.5,212.5 C 554.822,212.33 555.989,212.663 557,213.5C 558.271,217.979 559.938,222.312 562,226.5C 563.667,222.167 565.333,217.833 567,213.5C 568.183,212.269 569.349,212.269 570.5,213.5C 567.238,221.449 564.072,229.449 561,237.5C 559.211,239.229 557.044,239.896 554.5,239.5C 554.5,238.5 554.5,237.5 554.5,236.5C 557.952,236.61 559.952,234.943 560.5,231.5C 558.316,225.086 555.982,218.752 553.5,212.5 Z"/></g>
<g><path style="opacity:1" fill="#8ab6d2" d="M 251.5,229.5 C 252.209,230.404 253.209,230.737 254.5,230.5C 253.292,231.782 251.958,231.782 250.5,230.5C 250.624,229.893 250.957,229.56 251.5,229.5 Z"/></g>
<g><path style="opacity:1" fill="#5894c0" d="M 290.5,230.5 C 293.187,230.664 295.854,230.497 298.5,230C 296.292,229.809 294.292,229.309 292.5,228.5C 294.591,228.682 296.591,228.348 298.5,227.5C 300.101,228.035 300.601,229.035 300,230.5C 296.731,231.818 293.565,231.818 290.5,230.5 Z"/></g>
<g><path style="opacity:1" fill="#5894c0" d="M 485.5,230.5 C 488.187,230.664 490.854,230.497 493.5,230C 491.292,229.809 489.292,229.309 487.5,228.5C 489.591,228.682 491.591,228.348 493.5,227.5C 495.101,228.035 495.601,229.035 495,230.5C 491.731,231.818 488.565,231.818 485.5,230.5 Z"/></g>
</svg>
